<?xml version="1.0" encoding="UTF-8"?>
<svg id="Layer_3" data-name="Layer 3" xmlns="http://www.w3.org/2000/svg" viewBox="0 0 497 499">
  <defs>
    <style>
      .cls-1 {
        fill: #1f1955;
      }
    </style>
  </defs>
  <g id="chicken_leg" data-name="chicken leg">
    <g>
      <path class="cls-1" d="m388.2,369.4c-3.5,1.5-8.6-.5-11.4-4.3l-49.6-65.7c17.9-61.6-3.6-175.4-44.2-229.1C231.7,2.5,145.1-12.9,80.9,35.5,16.8,84,7.9,171.6,59.2,239.5c40,53,144.2,105.5,208.3,105.1l49.6,65.7c2.8,3.7,2.8,8.4,1,12.2-12.8,20.2-9.7,46,8.8,61.3,13.1,11.2,32,14.5,47.7,7.3,13.4-5.5,23.7-16.7,27-31,10.7.1,19.8-3.2,28-9.4,3-2.3,5.4-5.3,8.6-8.8,10.6-13.9,13.2-32.2,6-47.9-9.8-20.7-33.6-32-56-24.5ZM74.1,228.2c-45.7-60.4-37.9-135.4,18.1-177.7,56-42.3,130.2-29.3,175.9,31.2,51.3,67.9,61.3,211.5,27,237.4-34.3,25.9-169.7-23-221-90.9Zm353.5,174.7c4.7,9.3,2.5,20.4-3.3,28.3-6.5,8.4-17.7,12.2-27.5,10.2-5.2-.7-10.5,3.2-11.2,8.5-.9,11.2-7.4,19.7-17.3,23.6-9.9,4-20.9,1.8-28.1-4.6-12.6-10.4-12.3-27.1-5.6-36.8,6.7-9.7,5.9-23.2-2-33.7l-43.4-57.4c6.9-1.7,12.7-4.9,17.2-8.3,4.5-3.4,8.6-8.8,12.7-14.3l43.4,57.4c7.3,9.7,20.1,14.1,31.8,11.1,10.5-3.2,26.6,1,33.2,16Z"/>
      <path class="cls-1" d="m225.2,102.4c3.4,4.5,8.6,5.2,13.1,1.8s5.2-8.6,1.8-13.1c-31-41-89.9-49.2-131-18.2-4.5,3.4-5.2,8.6-1.8,13.1s8.6,5.2,13.1,1.8c32.8-24.8,80-18.2,104.8,14.6Z"/>
    </g>
  </g>
</svg>