<?xml version="1.0" encoding="UTF-8"?>
<svg id="Layer_2" data-name="Layer 2" xmlns="http://www.w3.org/2000/svg" viewBox="0 0 497 499">
  <defs>
    <style>
      .cls-1 {
        fill: #1f1955;
      }

      .cls-2 {
        stroke-width: 15.4px;
      }

      .cls-2, .cls-3, .cls-4 {
        fill: none;
        stroke: #1f1955;
        stroke-miterlimit: 10;
      }

      .cls-3 {
        stroke-linecap: round;
        stroke-width: 16.7px;
      }

      .cls-4 {
        stroke-width: 25px;
      }
    </style>
  </defs>
  <g>
    <path class="cls-2" d="m279.2,133.9c-2.6-34.6-24.3-50-32.6-58.4-8.3,8.3-28.9,23.7-31.4,58.4-2.2,30.1,30.1,58.2,30.1,58.2,0,0,2.5,1.1,3.8,0,0,0,32.3-28.1,30.1-58.2Z"/>
    <path class="cls-2" d="m311.1,222.8c25.2-23.9,23.4-50.4,24.6-62.2-11.7-1.2-36.6-7.4-65.1,12.6-24.7,17.3-26,60.1-26,60.1,0,0,.7,2.6,2.4,3,0,0,42.2,7.3,64.1-13.5Z"/>
    <path class="cls-2" d="m225.3,173.4c-27-21.8-53.1-16.5-64.9-16.1.4,11.8-2.4,37.3,21.1,62.8,20.4,22.2,63,17.8,63,17.8,0,0,2.5-1.1,2.6-2.8,0,0,1.6-42.8-21.9-61.7Z"/>
    <path class="cls-2" d="m224.7,248.5c-27.6-21.1-53.5-15.1-65.3-14.4.7,11.8-1.4,37.3,22.8,62.2,21,21.7,63.5,16.1,63.5,16.1,0,0,2.5-1.1,2.6-2.9,0,0,.5-42.8-23.5-61.1Z"/>
    <path class="cls-2" d="m227.6,323.4c-28.4-20-54.1-12.9-65.8-11.8,1.2,11.7,0,37.4,25.2,61.3,21.9,20.8,64.1,13.6,64.1,13.6,0,0,2.4-1.2,2.4-3,0,0-1.2-42.8-25.9-60.1Z"/>
    <path class="cls-2" d="m317.7,371.5c25.1-24,23.1-50.6,24.2-62.3-11.7-1.1-36.7-7.1-65,13-24.6,17.5-25.7,60.3-25.7,60.3,0,0,.8,2.6,2.5,3,0,0,42.2,7,64-13.9Z"/>
    <path class="cls-2" d="m315,297.2c25.2-23.9,23.4-50.4,24.6-62.2-11.7-1.2-36.6-7.3-65.1,12.6-24.7,17.3-26,60.1-26,60.1,0,0,.7,2.6,2.4,3,0,0,42.2,7.3,64.1-13.5Z"/>
    <line class="cls-3" x1="248.2" y1="429.6" x2="248.2" y2="188.2"/>
    <path class="cls-1" d="m257.4,322.5c1.6,1,3.4,1.6,5.4,1.7s4.1-.2,5-2-.4-3.6-2-4.4-3.9-1.3-5.8-1.1-3.5,1.3-4.2,2.9-.5,1.9-.3,2.8.7,1.7.9,2.6.1.4,0,.6.2-.1,0,0c-.2.2-.7.2-1,.3-.4.2-.8.4-1.1.8-1.4,1.9.5,3.7,2.4,4,4.7.8,7.2-4.7,4.2-8.1l.5,1.9v-.2c0,.3-.2.6-.4.8h.1c-.3,0-.6.2-.8.4-.3,0-.6-.1-.8-.3l-.3-1c0,.5-.6,1-.9,1.4-.5.6-1,1.2-1.6,1.8-1,1.1-2.1,2.1-3.2,3.1-2.3,2-4.7,3.8-7.3,5.4l2.3,3c1.1-1.2,2.1-2.4,3.2-3.6s2.2-2.2,3-3.5.4-2.7-.6-3.7-2.3-2.2-3.5-3.3c-4.6-4.2-9.4-8-14.5-11.6s-3.7,1.5-2.3,3,2,2.3,3.1,3.4l1.5,1.6c.2.3,1.1,1,1.1,1.2l.3-1v.3c.6-.3,1.3-.6,2-.9-2-.8-3.9-1.8-5.5-3.2s-1.9-.8-2.7,0-.8,2.1,0,2.7c2.2,1.8,4.6,3.1,7.2,4.2s1.8-.2,2.2-.9c1-2.2-.4-3.7-1.8-5.2s-3-3.3-4.5-5l-2.3,3c3.1,2.2,6.1,4.5,9,7s2.8,2.4,4.2,3.6,1.4,1.2,2,1.9,1.9,1.4,2,1.9v-1c0-.3-.3.3-.4.5-.2.2-.4.5-.6.7-.5.6-1.1,1.2-1.6,1.8-1,1.1-2,2.3-3,3.4s.4,4.2,2.3,3c4.3-2.7,8.3-5.9,11.8-9.7s4.1-4,2.9-6.4-1.3-1.5-2.3-1.6-2.3.6-2.8,1.8,0,1.4.5,1.9c1,1.1-.5,1.9-1.4,1.3l1,1.7v-.2c-.1.3-.2.6-.3,1-.6.4-.7.5-.2.3.2,0,.3,0,.5-.1.5-.2,1-.4,1.3-.8.7-.7,1.1-1.6,1.2-2.6s-.1-1.9-.5-2.8-.8-1.5-.4-2.2,1.5-.6,2.1-.5,1.2.3,1.8.4.8.4,1,.5c.6-1.1.6-1.5,0-1.2-.2,0-.4,0-.6,0-.5,0-1,0-1.4,0-1-.1-1.9-.6-2.8-1.1-2.1-1.4-4,2-1.9,3.3h0Z"/>
    <path class="cls-1" d="m254.5,253.7c1.2-1,2.5-1.8,3.9-2.5s2.5-1.1,3.6-1.9c2.2-1.5,3-5.5,0-6.6s-4.6,2.5-5.5,4.5-1.2,5.3-1.3,8l2.9-1.7c-1.4-1-2.5-2.3-3.2-3.9s-.7-1.7-.6-2.5,0-.6.4-.7-.2,0,.2,0,.6.5.9.7.8.4,1.3.5c.7.2,1.6.2,2.3.2s2.6-.6,3.3.2l1.4-3.3c-2.6,0-5.3,0-7.9.1s-5.3.3-7.8-.1-4.3-1.8-6.8-1.4-4.2,2-5.3.7l-2.3,3c2.2,1.7,4.4,3.4,6.6,5.1l1-3.6c-.8,0-1.9-.4-2.1-1.3l-3.3,1.4c1,1.1,1.8,2.2,2.5,3.4,1.3,2.1,4.6.2,3.3-1.9s-1.9-2.9-3.1-4.2-3.5-.3-3.3,1.4c.4,3,2.8,5.4,5.9,5.2s2.5-2.4,1-3.6c-2.2-1.7-4.4-3.4-6.6-5.1s-3.7,1.5-2.3,3,4.1,1.8,6.2,1.2,2.3-1,3.5-.8,2.4.9,3.7,1.2c2.7.6,5.6.4,8.3.3s5.9,0,8.9-.1,2.4-2,1.4-3.3c-1.6-1.9-4-1.4-6.1-1.3s-1.4-.2-2.4-.9-2.7-.8-4-.1c-2.7,1.5-2.7,4.9-1.7,7.4s2.8,4.8,5.1,6.4,2.8-.3,2.9-1.7.1-3.3.5-4.9.4-1.5.7-2.2.4-.7.6-1,.7-.6.8-.8c-1,.3-1.5.1-1.5-.5h0c-.3.2-.5.6-.8.7-.8.4-1.7.8-2.5,1.2-1.8,1-3.4,2.1-5,3.4s-.7,2,0,2.7,1.9.6,2.7,0h0Z"/>
  </g>
  <circle class="cls-4" cx="248.5" cy="249.3" r="236"/>
  <line class="cls-4" x1="82.6" y1="417.1" x2="163.8" y2="333.9"/>
  <line class="cls-4" x1="414.7" y1="81.8" x2="335.7" y2="160.7"/>
</svg>