<?xml version="1.0" encoding="UTF-8"?>
<svg id="Layer_1" data-name="Layer 1" xmlns="http://www.w3.org/2000/svg" viewBox="0 0 512 512.1">
  <defs>
    <style>
      .cls-1 {
        fill: #78d1c4;
      }
    </style>
  </defs>
  <path class="cls-1" d="m500.3,443.7l-119.7-119.7c27.2-40.4,40.6-90.9,33.5-144.7C401.8,87.8,326.8,13.3,235.2,1.7,99-15.5-15.5,99,1.7,235.2c11.6,91.6,86.1,166.7,177.6,178.9,53.8,7.2,104.3-6.2,144.7-33.5l119.7,119.7c15.6,15.6,41,15.6,56.6,0,15.6-15.6,15.6-41,0-56.6ZM79.1,208c0-70.6,57.4-128,128-128s128,57.4,128,128-57.4,128-128,128-128-57.4-128-128Z"/>
</svg>