<?xml version="1.0" encoding="UTF-8"?>
<svg id="Layer_1" data-name="Layer 1" xmlns="http://www.w3.org/2000/svg" viewBox="0 0 784.5 431.2">
  <defs>
    <style>
      .cls-1 {
        fill: #7bccc1;
      }

      .cls-2 {
        fill: none;
        stroke: #7bccc1;
        stroke-miterlimit: 10;
        stroke-width: 13px;
      }
    </style>
  </defs>
  <path class="cls-1" d="m593.1,86.5c-4.6-.4-9,0-13.3,1.2-4.3,1.1-8,3-11.3,5.6-3.3,2.6-6,6-8.2,10-2.2,4.1-3.5,9-3.9,14.7-.9,11.4,1.7,20.2,7.8,26.5,6.1,6.2,13.8,9.7,23.2,10.4,5.5.4,10.4.2,14.5-.8,4.1-1,7.8-2.1,11.1-3.3,3.5,2.9,6,5.9,7.6,9.1,1.6,3.2,2.2,6.9,1.9,11.1-.6,7.5-4.7,13.1-12.2,16.7-7.5,3.6-17.6,4.9-30.3,3.8-11.6-.9-21.9-3.5-31.1-7.6-9.1-4.1-16.8-9.6-23-16.3-6.2-6.7-10.8-14.5-13.8-23.5-3-8.9-4.1-18.7-3.2-29.1,1-12.2,3.8-22.6,8.5-31.4,4.7-8.8,10.7-15.9,17.9-21.2,7.3-5.3,15.5-9.1,24.7-11.4,9.2-2.2,18.7-3,28.6-2.2s23.3,4.3,30.1,9.6c6.8,5.4,9.9,11.8,9.3,19.3-.3,3.5-1.4,6.7-3.3,9.6-1.9,2.9-4,5.4-6.4,7.4-3-1.7-6.7-3.4-11-5.2-4.3-1.7-9-2.8-14.2-3.2Z"/>
  <path class="cls-1" d="m770.8,218.7c-1.9.3-4.9.4-8.8.3-4,0-8.1-.4-12.3-1.1-4-.6-7.5-1.4-10.6-2.5-3.1-1-5.6-2.5-7.5-4.5s-3.3-4.5-4-7.5c-.7-3-.8-6.8,0-11.3l9.3-60.5c1.1-7.4,0-13-3.2-16.5-3.3-3.6-7.6-5.8-13.1-6.6-3.6-.6-7.2-.6-10.6-.2-3.4.4-6.2,1.1-8.4,2.1l-14.7,95.4c-1.9.3-4.9.4-8.8.3-4,0-8.1-.4-12.3-1.1-4-.6-7.5-1.4-10.6-2.5-3.1-1-5.6-2.5-7.5-4.5-1.9-2-3.3-4.5-4-7.5-.8-3-.8-6.8,0-11.3l24.4-158.1c2.1,0,5.1,0,9.1-.1,4,0,8,.3,12,.9,4,.6,7.5,1.4,10.6,2.5,3.1,1,5.6,2.5,7.5,4.5,1.9,2,3.3,4.5,4,7.5.7,3,.8,6.8,0,11.3l-4.1,26.7c2.5-.5,6.3-1,11.3-1.5,5-.4,10.4-.2,16.2.7,18,2.8,31.3,9.4,40,20,8.7,10.6,11.7,24.7,8.9,42.6l-12.7,82.6Z"/>
  <path class="cls-1" d="m170,365.4c-2.3,2.7-5.4,5-9.4,7-4,2-8.7,3.5-14.2,4.4-7.3,1.2-13.5,1.3-18.6.2-5.1-1-8.7-3.7-10.9-7.9-8.6-17-15.7-30.8-21.2-41.3-5.5-10.5-9.9-19.8-13.3-27.8l-1.5.2c1.3,12.1,2.7,23.1,4,33.1,1.3,9.9,2.7,19.6,4.1,29,1.4,9.4,2.8,18.9,4,28.5,1.3,9.6,2.5,20.3,3.8,32-2.5,1.5-5.8,2.9-10,4.3-4.2,1.4-8.4,2.5-12.7,3.2-9,1.5-16.2,1.2-21.6-.9-5.5-2-8.8-6.8-10-14.4l-16.5-157.3c1.2-2.9,4.3-6.3,9.3-10.3,5-4,12.5-6.7,22.5-8.4,10.8-1.8,19.5-1.5,26.2.9,6.7,2.4,12,7.1,16.1,14.2,2.6,4.6,5.5,9.9,8.7,15.8,3.2,6,6.4,12.1,9.6,18.5,3.2,6.4,6.4,12.7,9.5,19,3.1,6.3,5.9,12,8.4,17l1.5-.2c2.1-17.9,4.3-35.3,6.6-52.1,2.3-16.8,4.6-30.9,6.9-42.4,2.8-2.1,6.5-4.1,11.1-6,4.6-1.9,9.9-3.3,15.8-4.3,10-1.6,18.4-1.5,25.2.4,6.8,1.9,11.2,5.6,13.1,10.9,1.5,4,3.4,10.1,5.7,18.4,2.3,8.3,4.8,17.7,7.6,28.1,2.7,10.4,5.6,21.5,8.5,33.1,2.9,11.7,5.8,22.9,8.5,33.6,2.7,10.7,5.1,20.6,7.2,29.6,2.1,9,3.6,15.9,4.6,20.7-3.1,2.6-6.5,4.7-10.1,6.2-3.6,1.5-8.4,2.8-14.3,3.7-7.7,1.3-14.5,1-20.2-.8-5.7-1.8-9.4-6.5-11.1-14.2-4.8-22-8.9-41.9-12.1-59.5-3.2-17.7-6.1-32.5-8.6-44.4l-1.5.2c-.7,8.3-2.1,18.7-4,31.4-1.9,12.7-4.1,28.8-6.5,48.4Z"/>
  <path class="cls-1" d="m322.8,249.6c10.1-.6,19.4-.1,27.9,1.5,8.5,1.6,15.8,4.3,21.9,8.1,6.2,3.9,11,9,14.6,15.2,3.6,6.3,5.6,13.8,6.1,22.6l3.7,63c.3,4.9-.8,8.9-3.4,12.2-2.5,3.3-5.6,6.1-9.2,8.6-11.8,8-28.7,12.7-50.8,14-9.9.6-19,.2-27-1.2-8.1-1.4-15.1-3.8-21-7.2-5.9-3.4-10.6-7.9-14.1-13.6-3.4-5.6-5.4-12.3-5.8-20-.8-12.9,2.5-23.1,9.8-30.5,7.3-7.4,18.9-12.4,35-15.1l36.6-6.1v-2c-.4-5.4-3.1-9.2-8-11.3-4.9-2.1-11.9-2.8-20.9-2.3-7.1.4-14,1.6-20.7,3.5-6.7,1.9-12.6,4.1-18,6.7-2.5-1.5-4.8-4-6.6-7.4-1.9-3.4-3-6.9-3.2-10.7s.6-8.8,2.8-11.9c2.2-3,5.6-5.7,10.4-8.1,5.3-2.4,11.6-4.3,19-5.6,7.4-1.4,14.3-2.3,20.9-2.7Zm8.8,110.4c3.2-.2,6.7-.7,10.5-1.6,3.8-.9,6.6-1.9,8.4-3.2l-1.3-22.5-20.2,2.9c-5.2.7-9.5,2.1-12.7,4.1-3.3,2.1-4.8,5-4.6,8.7s1.9,6.7,4.9,8.9c3,2.2,8,3.1,15,2.6Z"/>
  <path class="cls-1" d="m649.3,346c-1.4-3.5-3.7-6.4-6.9-8.8-3.2-2.4-6.5-3.8-10-4.5-3,4.1-7.3,8.3-13,12.7-5.6,4.4-12,8-19.1,10.9-7.7,3.1-15,4.4-22.1,3.9-7.1-.5-12.7-3.2-17-8.2l60.6-35.8c5.6-3.3,9.4-7.1,11.4-11.6,2-4.5,1.9-9.7-.5-15.6-3.2-8-7.8-14.8-13.6-20.4-5.8-5.6-12.4-9.7-19.9-12.3-7.5-2.7-15.5-3.8-24.2-3.6-8.7.3-17.7,2.3-26.9,6-8.2,3.3-15.7,7.8-22.5,13.5-6.8,5.7-12.2,12.4-16.1,20.2-3.9,7.8-6.1,16.6-6.5,26.4-.3,7.6.9,15.7,3.6,24.3-6.4,2.9-11.6,5.1-13.4,5.4-2.2.8-4.9,1.4-7.9,1.9-3,.5-5.9.8-8.7.8-5.6,0-10-.9-13.1-2.9-3.1-2-4.7-5.5-4.8-10.4l-.6-42.5,25.6-.4c4.9,0,8.8-1.6,11.6-4.5,2.9-2.9,4.3-7.7,4.2-14.3,0-3.8-.6-7.2-1.7-10.3-1.1-3.1-2.2-5.6-3.4-7.7l-36.9.5-.3-18c-.1-9.4-2.5-15.5-7.2-18.4-4.6-2.8-11.1-4.2-19.4-4.1-4.3,0-8.4.5-12.2,1.2-3.8.7-6.8,1.4-8.8,2l1.8,120.6c.2,16.9,4.9,29,13.9,36.4,9,7.4,21.8,11,38.3,10.7,13.5-.2,22.3-.6,36.1-4.1,3.4-.9,13.4-4.8,24.2-9.8,1.1,1.3,2.2,2.5,3.4,3.6,7.3,7.2,15.3,12.3,24.2,15.4,8.9,3.1,18.3,4.3,28.2,3.6,10-.7,20.1-3.1,30.3-7.3,6.1-2.5,12.4-5.6,19-9.5,6.5-3.9,12-8.4,16.4-13.6,5.8-6.8,7.1-14.1,3.9-21.9Zm-104.7-30.7c-.1-3.1.3-6.1,1.3-9.1,1-2.9,2.8-5.7,5.3-8.4,2.5-2.6,5.8-4.8,10-6.5,6.4-2.6,12-2.8,16.7-.7,4.7,2.1,8,4.8,10,8.1l-41.6,25.3s0,0,0,0c-1-2.8-1.5-5.8-1.6-8.9Z"/>
  <path class="cls-1" d="m771.1,385.2c-3,14-10.5,23.8-22.7,29.5-12.1,5.7-28.4,6.4-48.8,2.1-7.7-1.6-14.8-3.7-21.2-6.2-6.4-2.5-11.7-5.4-15.9-8.7-4.2-3.3-7.3-7-9.2-11-1.9-4.1-2.4-8.5-1.4-13.3.9-4.4,2.6-7.9,5.1-10.6,2.5-2.6,5.2-4.7,8.2-6.2,4.7,4.1,10.3,8,16.7,11.7,6.4,3.8,14.1,6.6,23.1,8.5,5.7,1.2,10.2,1.3,13.6.3,3.4-1,5.4-2.9,6-5.7.5-2.6-.1-4.8-2-6.8-1.9-1.9-5.3-3.9-10.3-5.9l-7.9-3.4c-15.3-6.5-26.2-14-32.6-22.3-6.4-8.4-8.3-18.8-5.6-31.3,1.4-6.8,4.2-12.6,8.3-17.5,4.1-4.9,9.2-8.6,15.3-11.2,6.1-2.5,13.1-4,21-4.5,7.9-.4,16.3.3,25.3,2.2,6.8,1.4,13.1,3.3,18.8,5.6,5.8,2.3,10.6,4.9,14.6,7.9,4,3,6.9,6.3,8.8,10.1,1.9,3.8,2.4,7.8,1.4,12.3s-2.4,7.7-4.6,10.4c-2.2,2.7-4.7,4.8-7.5,6.3-1.3-1.2-3.3-2.7-6-4.3-2.7-1.6-5.8-3.2-9.1-4.8-3.3-1.6-6.7-3-10.2-4.3-3.5-1.3-6.7-2.3-9.6-2.9-6.1-1.3-10.9-1.6-14.5-.9-3.6.7-5.7,2.5-6.3,5.4-.4,2,.1,3.9,1.7,5.5,1.6,1.7,4.8,3.6,9.7,5.8l8.1,3.7c16.8,7.8,28.2,16,34.1,24.6,5.9,8.7,7.7,18.6,5.4,29.8Z"/>
  <g>
    <path class="cls-1" d="m259.8,54.7c1.8-.7,4.7-1.5,8.7-2.3,4-.9,8.1-1.5,12.4-1.8s7.8-.3,11.1,0c3.3.3,6.1,1.2,8.5,2.7,2.4,1.5,4.3,3.7,5.7,6.5,1.4,2.8,2.3,6.5,2.7,11.2l4.5,60.1c.6,7.6,2.8,12.9,6.8,15.9,4,3,9.5,4.2,16.6,3.7,4.3-.3,7.7-1,10.4-1.9,2.6-.9,7.4-1.6,8.9-2.5l1.1-99.8c1.8-.7,5.5-1.9,9.8-2.3s7.8-.3,11.1,0c3.3.3,6.1,1.2,8.5,2.7,2.4,1.5,4.3,3.7,5.7,6.5,1.4,2.8,2.3,6.5,2.7,11.2l-.9,87.7c.7,9.3.3,13.8-2.9,19s-13.7,8.3-22.6,11.1c-8.9,2.8-18.6,4.6-29.2,5.4-10.1.8-19.4.3-28-1.2-8.6-1.6-16.2-4.5-22.7-8.7-6.5-4.2-11.7-9.8-15.6-16.9-3.9-7.1-6.3-15.9-7-26.3l-6-79.9Z"/>
    <path class="cls-1" d="m444.9,94.1c.2-5.9-1.3-10.3-4.5-13.2-3.2-2.9-7.7-4.4-13.4-4.6-3.8-.1-7.6.2-11.3,1-3.7.8-17,4.2-19.8,6l-1.1,99.8c-3.4,0-9.4.2-13.8.3-13.8.3-17.6-4.4-19.8-6.2-2.2-1.8-3.9-4.2-5-7.2-1.1-3-1.6-6.9-1.5-11.6l3-85.7c.2-5.1,1.4-9.3,3.7-12.5,2.3-3.2,5.4-6,9.3-8.5,6.6-4.3,14.9-7.8,24.8-10.3,9.9-2.5,20.9-3.6,32.9-3.2,21.5.7,37.9,6,49.2,15.9,11.3,9.8,16.6,23.1,16.1,39.9l-3.1,89.4c-1.9.5-4.9,1-9.1,1.4-4.1.4-8.4.6-12.7.4-4.2-.1-7.9-.6-11.3-1.2-3.3-.7-6.1-1.9-8.3-3.7-2.2-1.8-3.9-4.2-5-7.2-1.1-3-1.6-6.9-1.5-11.6l2.3-67.4Z"/>
  </g>
  <g>
    <path class="cls-1" d="m257.8,161.4c-2.2-9.3-4.8-19.6-7.7-30.8-2.9-11.2-5.9-22.9-9.1-35-3.2-12.1-6.2-23.6-9.1-34.5-2.9-10.8-5.6-20.6-8.1-29.2-2.5-8.6-4.5-15-6-19.1-2-5.5-6.6-9.3-13.7-11.3-7.1-2-15.9-2.1-26.2-.3-6.2,1-11.6,2.6-16.4,4.6-4.8,2-8.6,4.1-11.5,6.4-2.3,12-4.6,26.7-6.9,44.2-2.3,17.5-4.4,35.6-6.5,54.3l-1.6.3c-2.6-5.2-5.6-11.1-8.9-17.6-3.3-6.5-6.7-13.1-10.1-19.7-3.4-6.6-6.8-13-10.1-19.2-3.3-6.2-6.4-11.7-9.2-16.5-3.6-6.2-12.1-14-14.6-13.6,3.9,4.4,7.2,12.1,8.1,16.3,1.2,5.6,1,12.2-1.5,17.5-2.3,5-6.6,9-11.4,11.8-.5.5-1,1.1-.4.4-.4.5-.8.8-1.3,1.2,0,.5.2.9.2,1.4,0,.1,0,.3.1.4v.3c.1.4.1.8,0,1.2,0,.3,0,.6,0,.9.5,1.2.6,2.5.4,3.8.5,1,.7,2.1.6,3.2.1.3.2.7.3,1,.3.7.5,1.5.5,2.3h.7c3.6,8.2,8.3,17.9,14.1,28.8,5.8,10.9,13.2,25.2,22.4,42.9,2.3,4.4,6.1,7.2,11.4,8.2,5.3,1.1,11.8,1,19.4-.3,5.7-1,10.7-2.5,14.8-4.6,4.1-2.1,7.4-4.6,9.7-7.4,2.4-20.5,4.6-37.3,6.5-50.5,1.9-13.2,3.2-24.1,3.9-32.8l1.6-.3c2.8,12.4,5.9,27.8,9.3,46.2,3.5,18.4,7.8,39.1,13,62,1.8,8,5.7,12.9,11.7,14.7,6,1.8,13,2,21.1.7,6.2-1,11.1-2.4,14.9-4,3.8-1.6,7.3-3.8,10.5-6.5-1.1-5.1-2.7-12.3-5-21.6Z"/>
    <path class="cls-2" d="m95.9,178.8c-6.1-5.5-16.6-7.8-16.6-7.8l-7.7-95.2c8.6-2.1,14.5-5.3,18.2-14s3.4-21.5-4.6-28.7c-7-6.3-16.4-6.5-18.8-5.9-9.9,2.2-16.6,9.4-18.2,11.4s-.6.3-.9.1c-2.3-1.5-12.1-7.5-20.2-6.8s-8.7,1.5-14.8,8.9c-6.2,7.6-7.4,17.4-3.3,27.4,2.3,5.6,9.6,11.7,22.4,12.1l7.7,95.2s-11.1,4.3-16.1,10.9c-5.8,7.8-4.4,18.9,1.3,26.4,3.7,4.8,9.8,10.1,19,9.5,10.7-.7,16.2-9.3,18-12.8.4-.7,1.3-.8,1.9-.3,7,7,15,8.5,20.5,8.3,9.2-.5,14.9-7.7,17-13.3,3.4-9,2.2-19.1-4.8-25.6Z"/>
  </g>
</svg>